<?xml version="1.0" encoding="UTF-8" standalone="no"?>
<!DOCTYPE svg PUBLIC "-//W3C//DTD SVG 1.1//EN" "http://www.w3.org/Graphics/SVG/1.1/DTD/svg11.dtd">
<svg width="100%" height="100%" viewBox="0 0 299 299" version="1.1" xmlns="http://www.w3.org/2000/svg" xmlns:xlink="http://www.w3.org/1999/xlink" xml:space="preserve" xmlns:serif="http://www.serif.com/" style="fill-rule:evenodd;clip-rule:evenodd;stroke-linejoin:round;stroke-miterlimit:2;">
    <g transform="matrix(0.810964,0,0,0.72344,28.19,28.457)">
        <path d="M232.125,149C232.125,102.884 194.741,65.5 148.625,65.5C102.509,65.5 65.125,102.884 65.125,149L65.125,232.25L232.125,232.25L232.125,149ZM148.208,118.25C131.252,118.25 117.458,132.044 117.458,149C117.458,153.143 114.101,156.5 109.958,156.5C105.815,156.5 102.458,153.143 102.458,149C102.458,123.773 122.981,103.25 148.208,103.25C152.351,103.25 155.708,106.607 155.708,110.75C155.708,114.893 152.351,118.25 148.208,118.25Z" style="fill:rgb(255,82,0);fill-rule:nonzero;"/>
        <path d="M249.156,247.25L49.842,247.25C36.346,247.25 25.125,262.846 25.125,276.347L25.125,298.25L273.125,298.25L273.125,276.347C273.125,262.846 262.65,247.25 249.156,247.25Z" style="fill:rgb(236,229,203);fill-rule:nonzero;"/>
        <path d="M148.625,50C152.768,50 156.125,46.643 156.125,42.5L156.125,7.5C156.125,3.357 152.768,0 148.625,0C144.482,0 141.125,3.357 141.125,7.5L141.125,42.5C141.125,46.643 144.482,50 148.625,50Z" style="fill:rgb(236,229,203);fill-rule:nonzero;"/>
        <path d="M89.819,60.445C91.209,62.851 93.729,64.196 96.321,64.196C97.593,64.196 98.884,63.872 100.064,63.19C103.651,61.119 104.88,56.532 102.809,52.945L85.309,22.634C83.238,19.047 78.649,17.818 75.064,19.889C71.477,21.96 70.248,26.547 72.319,30.134L89.819,60.445Z" style="fill:rgb(236,229,203);fill-rule:nonzero;"/>
        <path d="M23.761,84.306L54.072,101.806C55.254,102.488 56.543,102.812 57.815,102.812C60.407,102.812 62.928,101.467 64.317,99.061C66.388,95.474 65.159,90.887 61.572,88.816L31.261,71.316C27.671,69.246 23.086,70.473 21.016,74.061C18.944,77.647 20.174,82.234 23.761,84.306Z" style="fill:rgb(236,229,203);fill-rule:nonzero;"/>
        <path d="M198.186,63.19C199.368,63.872 200.657,64.196 201.929,64.196C204.521,64.196 207.042,62.851 208.431,60.445L225.931,30.134C228.002,26.547 226.773,21.96 223.186,19.889C219.597,17.818 215.01,19.046 212.941,22.634L195.441,52.945C193.369,56.532 194.599,61.119 198.186,63.19Z" style="fill:rgb(236,229,203);fill-rule:nonzero;"/>
        <path d="M240.436,102.812C241.708,102.812 242.999,102.488 244.179,101.806L274.49,84.306C278.077,82.235 279.306,77.648 277.235,74.061C275.163,70.473 270.575,69.246 266.99,71.316L236.679,88.816C233.092,90.887 231.863,95.474 233.934,99.061C235.323,101.467 237.844,102.812 240.436,102.812Z" style="fill:rgb(236,229,203);fill-rule:nonzero;"/>
    </g>
</svg>
