<?xml version="1.0" encoding="UTF-8" standalone="no"?>
<!DOCTYPE svg PUBLIC "-//W3C//DTD SVG 1.1//EN" "http://www.w3.org/Graphics/SVG/1.1/DTD/svg11.dtd">
<svg width="100%" height="100%" viewBox="0 0 4100 755" version="1.1" xmlns="http://www.w3.org/2000/svg" xmlns:xlink="http://www.w3.org/1999/xlink" xml:space="preserve" xmlns:serif="http://www.serif.com/" style="fill-rule:evenodd;clip-rule:evenodd;stroke-linejoin:round;stroke-miterlimit:2;">
    <g id="Artboard1" transform="matrix(1,0,0,1,10.3784,-3324.54)">
        <rect x="-10.378" y="3324.54" width="4099.46" height="754.162" style="fill:none;"/>
        <clipPath id="_clip1">
            <rect x="-10.378" y="3324.54" width="4099.46" height="754.162"/>
        </clipPath>
        <g clip-path="url(#_clip1)">
            <g transform="matrix(1,0,0,1,0.621579,0.540569)">
                <g transform="matrix(-0.267131,0,0,0.489524,2829.55,2080.35)">
                    <path d="M-63.524,4040.1C154.611,3588.18 384.768,3147.76 759.742,2845.86C511.443,3216.04 438.022,3558.12 569.171,3867.32C809.719,3475.64 1064.33,3100.63 1488.99,2927.17C1142.01,3280.96 1153.33,3485.92 1247.6,3656.42C1360.73,3354.08 1514.76,3114.29 1743.09,2988.15C1557.16,3248.78 1508.05,3480.48 1674.48,3666.58L2393.57,3796.17C2417.03,3526.51 2362.49,3261.19 2263.98,2998.31C2451.47,3191.31 2555.88,3437.17 2594.3,3725.02C2724.01,3421.03 2909.24,3188.78 3201.59,3094.87C2939.36,3350.8 2819.25,3576.66 2909.38,3758.06L3206.67,3831.74C3411.45,3677.41 3552.43,3459.26 3587.81,3135.52C3689.76,3330.68 3734.9,3540.03 3674.2,3775.84L4245.92,3877.48L4276.41,4179.85L-99.097,4167.15L-63.524,4040.1Z" style="fill:rgb(176,114,75);"/>
                </g>
                <path d="M3897.81,3956.25L4258.62,4182.39L7.623,4131.57L104.179,3986.74C144.771,3762.49 84.761,3553.73 -50.819,3356.59C166.131,3535.79 289.545,3744.01 309.995,3984.2C350.766,3848.92 374.327,3690.17 340.486,3453.14C449.462,3569.52 488.173,3728.05 495.484,3905.43C596.036,3786.76 704.039,3691.94 838.511,3681.83C764.441,3841.26 771.982,3944.19 874.084,3981.66C1041.63,3923.7 1219.96,3899.93 1344.16,3704.7C1343.74,3840.76 1257,3939.83 1161.21,4035.02C1248.95,3933.67 1339.41,3843.22 1440.71,3796.17C1369.94,3936.84 1397.14,3997.68 1509.32,3989.28L1865.05,3994.36C1935.38,3938.8 1986.19,3861.95 1981.93,3725.02C2032.62,3840.44 2014.36,3939.95 1976.85,4035.02C2065.09,3908.93 2150.82,3782.17 2314.8,3676.74C2174.13,3786.84 2145.85,3908.78 2134.39,4032.48C2183.05,3946.6 2234.93,3861.53 2365.62,3796.17C2291.14,3858.61 2273.23,3947.16 2286.85,4050.26C2502.49,3761.27 2726.72,3498.03 2983.07,3331.18C2739.85,3563.27 2583.42,3780.9 2543.48,3979.12L2820.45,4068.05L2972.9,3582.73C2920.59,3856.66 2957.43,3989.83 3033.89,4060.43C3059.78,3806.25 3124.88,3614.15 3232.08,3488.72C3101,3812.53 3087.89,4005.95 3214.29,4045.18L3587.81,4014.69C3631.59,3892.17 3588.93,3726.43 3483.63,3529.37C3604.56,3640.45 3672.71,3786.72 3671.66,3979.12C3808.24,3742.51 3957.7,3568.51 4141.74,3562.4C4003.23,3629.75 3921.13,3760.16 3897.81,3956.25Z" style="fill:rgb(176,114,75);"/>
                <path d="M1453.42,4238.29C1596.09,4135.58 1706.6,4005.86 1679.56,3760.6C1794.33,3908.92 1829.91,4037.45 1809.15,4151.9L1453.42,4238.29Z" style="fill:rgb(176,114,75);"/>
                <g transform="matrix(-0.408246,0,0,0.489524,4360.46,2115.93)">
                    <path d="M-63.524,4040.1C154.611,3588.18 384.768,3147.76 759.742,2845.86C511.443,3216.04 438.022,3558.12 569.171,3867.32C809.719,3475.64 1064.33,3100.63 1488.99,2927.17C1142.01,3280.96 1153.33,3485.92 1247.6,3656.42C1360.73,3354.08 1514.76,3114.29 1743.09,2988.15C1557.16,3248.78 1508.05,3480.48 1674.48,3666.58L2393.57,3796.17C2417.03,3526.51 2362.49,3261.19 2263.98,2998.31C2451.47,3191.31 2555.88,3437.17 2594.3,3725.02C2724.01,3421.03 2909.24,3188.78 3201.59,3094.87C2939.36,3350.8 2819.25,3576.66 2909.38,3758.06L3206.67,3831.74C3411.45,3677.41 3552.43,3459.26 3587.81,3135.52C3689.76,3330.68 3734.9,3540.03 3674.2,3775.84L4245.92,3877.48L4276.41,4179.85L-99.097,4167.15L-63.524,4040.1Z" style="fill:rgb(176,114,75);"/>
                </g>
                <g transform="matrix(0.444832,0,0,0.598095,-55.0154,1679.9)">
                    <path d="M-63.524,4040.1C154.611,3588.18 384.768,3147.76 759.742,2845.86C511.443,3216.04 438.022,3558.12 569.171,3867.32C809.719,3475.64 1064.33,3100.63 1488.99,2927.17C1142.01,3280.96 1153.33,3485.92 1247.6,3656.42C1360.73,3354.08 1514.76,3114.29 1743.09,2988.15C1557.16,3248.78 1508.05,3480.48 1674.48,3666.58L2393.57,3796.17C2417.03,3526.51 2362.49,3261.19 2263.98,2998.31C2451.47,3191.31 2555.88,3437.17 2594.3,3725.02C2724.01,3421.03 2909.24,3188.78 3201.59,3094.87C2939.36,3350.8 2819.25,3576.66 2909.38,3758.06L3206.67,3831.74C3411.45,3677.41 3552.43,3459.26 3587.81,3135.52C3689.76,3330.68 3734.9,3540.03 3674.2,3775.84L4245.92,3877.48L4276.41,4179.85L-99.097,4167.15L-63.524,4040.1Z" style="fill:rgb(176,114,75);"/>
                </g>
            </g>
        </g>
    </g>
</svg>
