<?xml version="1.0" encoding="UTF-8" standalone="no"?>
<!DOCTYPE svg PUBLIC "-//W3C//DTD SVG 1.1//EN" "http://www.w3.org/Graphics/SVG/1.1/DTD/svg11.dtd">
<svg width="100%" height="100%" viewBox="0 0 1280 1016" version="1.1" xmlns="http://www.w3.org/2000/svg" xmlns:xlink="http://www.w3.org/1999/xlink" xml:space="preserve" xmlns:serif="http://www.serif.com/" style="fill-rule:evenodd;clip-rule:evenodd;stroke-linejoin:round;stroke-miterlimit:2;">
    <g transform="matrix(0.1,0,0,-0.1,0,1016)">
        <path d="M11715,10153C11485,10097 11319,10011 11190,9881C11090,9779 11056,9721 11032,9610C11011,9514 10970,9189 10970,9115C10970,9073 10950,9040 10913,9021C10881,9004 10698,8980 10604,8980L10524,8980L10339,9163C10124,9378 9990,9492 9828,9600C9638,9726 9476,9780 9372,9751C9289,9728 9276,9692 9304,9560C9340,9390 9427,9228 9668,8880C9789,8704 9841,8638 9871,8618L9912,8591L9881,8576C9844,8556 9843,8551 9836,8372L9830,8229L9791,8182C9685,8055 9626,7921 9601,7753C9585,7650 9587,7616 9611,7565C9683,7411 9847,7329 10153,7293L10221,7285L10045,7095L9868,6905L9717,6888C9334,6844 9028,6767 8742,6641C8448,6513 8131,6276 7606,5791C7422,5621 7315,5500 7210,5344C6957,4966 6798,4471 6735,3867C6716,3684 6697,3232 6705,3169L6711,3124L6571,2955C6481,2847 6430,2778 6430,2763C6430,2709 6311,2511 6162,2316C6091,2224 5816,1958 5668,1839C5400,1624 5125,1479 4785,1375C4656,1335 4660,1336 3850,1275C3732,1267 3309,1235 2910,1205C2511,1175 2115,1145 2030,1139C1924,1131 1734,1103 1430,1049C1185,1006 931,962 865,950C508,888 119,818 73,809C28,800 20,795 11,768C-19,683 9,600 91,526L145,477L550,484C989,491 1834,504 2960,520C3353,526 3939,535 4261,540L4847,549L5071,629C5602,817 5928,949 6232,1100C6486,1227 6598,1316 7265,1919C7584,2207 7859,2456 7877,2473L7908,2502L8000,2464C8051,2443 8094,2419 8096,2411C8106,2378 8162,2272 8190,2234C8213,2202 8231,2190 8277,2176C8351,2153 8446,2105 8457,2086C8462,2078 8462,2013 8458,1943C8455,1873 8446,1716 8440,1595C8416,1123 8370,779 8308,603C8289,547 8288,535 8298,489C8310,439 8357,334 8386,296C8401,274 8410,273 8900,215C9691,123 10484,58 11275,21C11794,-4 11760,-4 11825,19C11941,60 12001,122 11986,186C11977,223 11860,337 11797,370C11771,384 11750,397 11750,400C11750,403 11794,402 11848,397C11901,393 12060,389 12200,388C12526,386 12626,402 12746,473C12785,496 12800,512 12800,531C12800,578 12650,696 12495,772C12450,794 12438,795 12375,788C12276,776 12134,787 12000,817C11870,846 11787,874 11645,938L11545,983L11350,991C11243,995 10966,1006 10735,1015C9920,1046 9940,1045 9893,1069C9844,1093 9807,1144 9789,1210C9776,1262 9782,1476 9806,1750C9846,2218 9914,2578 10015,2869C10062,3004 10090,3057 10135,3100C10213,3174 10308,3333 10364,3482L10388,3544L10388,3374C10388,3242 10392,3184 10408,3108C10433,2986 10489,2866 10530,2845C10586,2816 10611,2827 10627,2890C10636,2925 10637,2925 10649,2902C10669,2865 10731,2800 10761,2784C10795,2767 10832,2766 10848,2782C10864,2798 10863,2842 10848,2859C10837,2869 10843,2878 10874,2903C10896,2921 10927,2946 10943,2960L10972,2985L10957,3061L10943,3137L10988,3239L11032,3341L10850,3875L10893,3910C11114,4091 11343,4380 11588,4789C11667,4920 11668,4922 11684,4899C11713,4854 11748,4745 11765,4645C11784,4533 11788,4190 11771,4132C11766,4114 11700,4003 11624,3884L11487,3669L11394,3413C11310,3182 11302,3154 11313,3131C11328,3099 11360,3093 11395,3116L11422,3133L11391,3085C11353,3026 11350,2984 11383,2969C11401,2961 11419,2965 11474,2990C11547,3023 11570,3023 11570,2990C11570,2965 11537,2898 11502,2851C11477,2818 11477,2817 11496,2803C11510,2792 11534,2789 11586,2793C11675,2798 11763,2837 11837,2904C11920,2979 11932,3024 12070,3820L12189,4505L12210,4980C12222,5241 12237,5581 12244,5735C12251,5893 12253,6054 12249,6105C12220,6450 12048,6890 11745,7394L11672,7515L11600,7870L11527,8225L11541,8785L11602,8845C11768,9009 11887,9287 11981,9730C12012,9874 12017,9955 12004,10066L11998,10117L11892,10133C11833,10142 11774,10151 11760,10154C11746,10156 11726,10156 11715,10153ZM9235,2713C9232,2692 9219,2590 9205,2485C9161,2155 9115,1930 9087,1913C9073,1904 9086,2455 9103,2575C9111,2630 9121,2683 9125,2694C9133,2712 9202,2749 9228,2750C9236,2750 9239,2739 9235,2713Z" style="fill:rgb(147,85,46);fill-opacity:0.7;fill-rule:nonzero;"/>
    </g>
</svg>
