<?xml version="1.0" encoding="UTF-8" standalone="no"?>
<!DOCTYPE svg PUBLIC "-//W3C//DTD SVG 1.1//EN" "http://www.w3.org/Graphics/SVG/1.1/DTD/svg11.dtd">
<svg width="100%" height="100%" viewBox="0 0 4096 4096" version="1.1" xmlns="http://www.w3.org/2000/svg" xmlns:xlink="http://www.w3.org/1999/xlink" xml:space="preserve" xmlns:serif="http://www.serif.com/" style="fill-rule:evenodd;clip-rule:evenodd;stroke-linejoin:round;stroke-miterlimit:2;">
    <g transform="matrix(0.432867,-1.5706e-17,1.5706e-17,-0.561116,2455.19,7294.97)">
        <path d="M4837,12593C4815,12590 4797,12570 4750,12499C4717,12450 4688,12410 4685,12410C4683,12410 4662,12451 4639,12501L4596,12592L4551,12585C4032,12512 3570,12278 3279,11943C3193,11845 3116,11735 3080,11662C3066,11634 3053,11611 3050,11611C3047,11611 3029,11643 3010,11683C2900,11907 2670,12134 2421,12264C2313,12320 2165,12379 2126,12382C2115,12383 2074,12364 2036,12341C1999,12318 1966,12301 1963,12304C1960,12306 1946,12350 1931,12401C1900,12509 1911,12503 1731,12519C1226,12565 778,12477 465,12271C392,12223 250,12093 250,12074C250,12067 275,12070 323,12081C504,12127 803,12148 966,12127L1027,12119L1104,12176C1146,12207 1183,12230 1185,12228C1188,12226 1195,12190 1201,12149L1212,12074L1328,12061C1947,11995 2482,11739 2731,11388C2752,11359 2753,11357 2734,11364C2551,11439 2415,11469 2213,11477L2061,11483L2010,11436C1981,11411 1954,11390 1950,11390C1945,11390 1921,11413 1896,11441L1849,11493L1772,11491C1527,11485 1243,11407 1027,11286C798,11158 550,10888 454,10663L426,10597L490,10540L553,10483L470,10444L387,10406L393,10285C404,10067 458,9854 548,9675C590,9590 661,9477 677,9467C682,9464 685,9546 685,9648C685,9802 689,9855 708,9947C757,10190 859,10420 1001,10605L1039,10656L1045,10880L1221,10752L1318,10795C1479,10866 1633,10907 1840,10935C1964,10952 2288,10955 2428,10940C2544,10927 2752,10891 2763,10880C2767,10876 2738,10870 2698,10867C2396,10840 2054,10695 1860,10513L1796,10453L1828,10370C1846,10324 1859,10285 1856,10283C1854,10281 1809,10272 1756,10263C1688,10252 1656,10242 1650,10230C1633,10199 1560,9914 1531,9765C1451,9362 1449,8950 1524,8659C1552,8553 1610,8407 1641,8370L1661,8345L1654,8392C1639,8505 1690,8775 1765,8970C1844,9179 1999,9462 2152,9681L2227,9787L2164,9871C2129,9917 2100,9958 2100,9961C2100,9964 2146,9965 2203,9963L2305,9958L2368,10044C2435,10135 2625,10355 2680,10405C2706,10429 2714,10432 2718,10420C2720,10412 2741,10387 2764,10365C2827,10304 2913,10284 2986,10315C3013,10326 3022,10326 3025,10317C3048,10245 3140,9803 3184,9555C3315,8823 3368,8255 3377,7523C3385,6831 3356,6386 3264,5817C3250,5730 3240,5657 3242,5655C3255,5642 3451,5599 3537,5590C3683,5575 3850,5598 3944,5647L3973,5662L3966,5818C3902,7310 3684,8863 3349,10205C3316,10337 3287,10452 3285,10460C3282,10470 3291,10480 3312,10488C3354,10503 3352,10505 3638,10221L3871,9990L3966,10006C4018,10015 4063,10020 4065,10018C4068,10016 4061,9985 4050,9950C4039,9915 4032,9885 4033,9884C4034,9884 4103,9848 4187,9806C4590,9601 4918,9324 5122,9020C5161,8962 5193,8914 5195,8912C5199,8907 5190,8996 5174,9115C5134,9406 5031,9688 4890,9889L4840,9959L4690,9965L4731,10033L4771,10101L4732,10148C4507,10416 4056,10664 3475,10840C3382,10868 3298,10895 3290,10898C3264,10910 3411,10911 3516,10901C3763,10876 4032,10792 4223,10681L4290,10641L4378,10771L4429,10687L4479,10603L4588,10608C4712,10613 5008,10596 5185,10574C5359,10552 5677,10486 5853,10436C6005,10392 6240,10311 6293,10283C6309,10275 6324,10270 6326,10272C6334,10281 6165,10486 6055,10599C5875,10785 5681,10937 5473,11058L5402,11100L5301,11041C5246,11008 5199,10984 5196,10988C5194,10992 5186,11037 5179,11089C5172,11141 5160,11188 5154,11195C5142,11207 4953,11247 4778,11275C4489,11320 4064,11333 3798,11305C3632,11288 3445,11251 3328,11213C3280,11197 3244,11188 3246,11192C3248,11195 3314,11237 3393,11284C3784,11518 4204,11657 4623,11692C4744,11702 4770,11707 4770,11719C4770,11728 4763,11775 4754,11824C4746,11872 4741,11914 4743,11916C4745,11919 4814,11892 4896,11856L5045,11792L5080,11814C5377,11994 5706,12111 6120,12183L6255,12207L6115,12277C5848,12411 5586,12503 5330,12554C5145,12591 4934,12607 4837,12593Z" style="fill:rgb(147,85,46);fill-opacity:0.65;fill-rule:nonzero;"/>
    </g>
</svg>
