<?xml version="1.0" encoding="UTF-8" standalone="no"?>
<!DOCTYPE svg PUBLIC "-//W3C//DTD SVG 1.1//EN" "http://www.w3.org/Graphics/SVG/1.1/DTD/svg11.dtd">
<svg width="100%" height="100%" viewBox="0 0 4096 4096" version="1.1" xmlns="http://www.w3.org/2000/svg" xmlns:xlink="http://www.w3.org/1999/xlink" xml:space="preserve" xmlns:serif="http://www.serif.com/" style="fill-rule:evenodd;clip-rule:evenodd;stroke-linejoin:round;stroke-miterlimit:2;">
    <g transform="matrix(-0.408606,-1.16927e-16,1.16927e-16,-0.546176,4114.97,7535.24)">
        <path d="M10940,12523C10792,12512 10561,12462 10491,12425C10469,12414 10459,12397 10441,12334L10419,12257L10309,12365L10242,12330C10146,12281 9988,12173 9900,12097C9733,11953 9592,11754 9515,11552L9487,11479L9451,11548C9373,11694 9257,11831 9128,11926C9026,12001 9017,12004 8958,11984C8924,11973 8905,11971 8898,11978C8892,11984 8885,12018 8882,12055L8877,12122L8831,12142C8705,12196 8484,12251 8316,12271C8198,12285 7757,12269 7590,12244C7264,12197 6993,12076 6816,11898C6778,11860 6749,11827 6752,11825C6755,11822 6795,11828 6841,11839C6887,11850 6961,11864 7005,11872C7091,11885 7428,11890 7471,11878C7492,11872 7509,11880 7571,11925C7612,11955 7648,11980 7651,11980C7655,11980 7661,11948 7665,11910C7669,11871 7676,11838 7680,11835C7685,11832 7744,11823 7812,11814C7880,11806 7988,11789 8052,11776C8177,11751 8420,11681 8420,11671C8420,11667 8381,11657 8334,11647C8136,11606 7885,11506 7730,11405C7689,11378 7608,11309 7550,11251C7467,11168 7435,11128 7403,11065C7369,10999 7348,10974 7289,10925C7160,10818 6995,10596 6944,10463L6927,10419L7041,10303L6964,10266L6887,10230L6893,10107C6904,9898 6955,9699 7041,9528C7081,9449 7151,9337 7167,9327C7172,9324 7174,9394 7172,9482C7169,9667 7189,9814 7240,9970C7275,10079 7377,10293 7389,10286C7394,10283 7400,10268 7403,10253C7406,10237 7416,10207 7426,10185L7443,10145L7457,10215C7484,10349 7576,10584 7610,10605C7615,10608 7635,10599 7654,10585L7688,10559L7747,10588C7852,10641 8044,10701 8185,10725L8225,10732L8139,10643C8039,10541 7983,10460 7928,10343C7883,10247 7840,10089 7840,10020L7840,9972L7950,9926L7901,9876L7851,9825L7886,9740C7921,9655 7921,9655 7910,9570C7897,9464 7897,9373 7910,9295C7915,9262 7921,9138 7924,9020C7928,8793 7947,8649 7990,8505C8012,8433 8089,8260 8099,8260C8102,8260 8105,8313 8106,8378C8107,8511 8125,8612 8177,8768C8250,8989 8374,9232 8546,9487L8648,9639L8589,9717C8557,9760 8530,9799 8530,9803C8530,9808 8572,9809 8623,9805L8717,9798L8785,9884L8802,9724C8851,9277 8982,8926 9175,8727C9221,8678 9241,8670 9221,8708C9200,8748 9170,8896 9164,8995C9152,9180 9199,9506 9270,9730C9286,9782 9300,9825 9300,9826C9300,9826 9271,9847 9235,9871C9199,9895 9170,9917 9170,9920C9170,9924 9201,9934 9239,9944C9299,9960 9310,9966 9318,9990C9327,10015 9333,10017 9396,10023C9434,10026 9466,10027 9467,10026C9468,10026 9489,9926 9515,9806C9652,9153 9735,8531 9771,7873C9786,7587 9778,6778 9756,6530C9737,6308 9697,5985 9666,5802L9644,5669L9709,5649C9915,5586 10136,5585 10295,5648L10345,5668L10342,5786C10331,6217 10275,6920 10204,7520C10115,8273 9961,9153 9796,9845C9761,9994 9733,10116 9735,10118C9737,10120 9760,10083 9786,10037C9839,9944 9845,9940 9948,9940L9991,9940L9964,9890L9937,9841L9971,9813C10037,9760 10223,9574 10280,9505C10405,9353 10520,9152 10575,8991L10597,8925L10611,9000C10620,9047 10624,9143 10624,9255C10624,9426 10619,9471 10584,9604L10577,9633L10636,9600C10745,9540 10944,9401 11045,9317C11212,9177 11361,9010 11455,8855L11492,8795L11486,8889C11468,9166 11359,9500 11214,9717L11159,9800L11084,9800C11043,9800 11010,9802 11010,9805C11010,9807 11028,9839 11049,9874L11089,9938L11025,10013C10989,10054 10953,10091 10944,10094C10935,10098 10929,10103 10932,10106C10941,10114 11135,10025 11272,9949C11401,9878 11555,9781 11623,9728C11646,9710 11660,9703 11660,9712C11660,9719 11638,9771 11610,9828C11583,9884 11565,9930 11570,9930C11574,9930 11580,9924 11583,9918C11585,9911 11590,9908 11594,9911C11603,9920 11497,10130 11440,10214C11413,10255 11368,10316 11340,10349C11280,10421 11273,10418 11458,10395C11750,10359 12082,10281 12350,10187C12435,10157 12522,10125 12544,10116L12582,10099L12559,10132C12422,10328 12174,10575 11953,10733C11880,10786 11708,10890 11694,10890C11688,10890 11640,10865 11589,10835L11495,10780L11479,10880C11471,10935 11459,10984 11454,10989C11444,10998 11196,11050 11161,11050C11149,11050 11140,11054 11140,11058C11140,11072 11375,11110 11518,11120C11597,11125 11703,11125 11791,11120C11981,11107 11965,11107 11949,11127C11936,11142 11941,11143 12008,11137C12047,11134 12080,11133 12080,11134C12080,11140 11915,11247 11849,11283C11813,11303 11739,11339 11684,11364C11630,11388 11558,11424 11525,11444C11428,11504 11273,11575 11163,11610C11081,11636 11060,11646 11060,11661C11060,11672 11062,11680 11064,11680C11067,11680 11132,11653 11210,11620L11352,11561L11456,11621C11696,11761 12048,11879 12401,11937C12522,11957 12524,11954 12335,12045C11999,12206 11693,12296 11381,12325L11307,12332L11391,12381C11437,12408 11496,12441 11522,12453C11548,12465 11569,12478 11570,12481C11570,12488 11427,12508 11290,12520C11189,12529 11036,12530 10940,12523ZM8517,11634L8579,11607L8552,11574C8537,11555 8523,11540 8520,11540C8517,11540 8506,11555 8494,11573C8483,11590 8465,11617 8456,11633C8433,11667 8439,11667 8517,11634Z" style="fill:rgb(163,125,101);fill-opacity:0.71;fill-rule:nonzero;"/>
    </g>
</svg>
